<svg width="16" height="16" viewBox="0 0 16 16" fill="none" xmlns="http://www.w3.org/2000/svg">
<path d="M2.98529 11.7086C3.64438 11.2045 4.38102 10.807 5.19519 10.516C6.00936 10.2255 6.8623 10.0802 7.75401 10.0802C8.64572 10.0802 9.49866 10.2255 10.3128 10.516C11.127 10.807 11.8636 11.2045 12.5227 11.7086C12.975 11.1787 13.3273 10.5778 13.5796 9.90575C13.8313 9.23373 13.9572 8.51649 13.9572 7.75401C13.9572 6.0352 13.3532 4.57151 12.1451 3.36291C10.9365 2.15484 9.47282 1.5508 7.75401 1.5508C6.0352 1.5508 4.57176 2.15484 3.36369 3.36291C2.1551 4.57151 1.5508 6.0352 1.5508 7.75401C1.5508 8.51649 1.67693 9.23373 1.9292 9.90575C2.18094 10.5778 2.53298 11.1787 2.98529 11.7086ZM7.75401 8.52941C6.99153 8.52941 6.34847 8.26784 5.82481 7.74471C5.30168 7.22105 5.04011 6.57799 5.04011 5.81551C5.04011 5.05303 5.30168 4.40996 5.82481 3.88631C6.34847 3.36317 6.99153 3.1016 7.75401 3.1016C8.51649 3.1016 9.15955 3.36317 9.68321 3.88631C10.2063 4.40996 10.4679 5.05303 10.4679 5.81551C10.4679 6.57799 10.2063 7.22105 9.68321 7.74471C9.15955 8.26784 8.51649 8.52941 7.75401 8.52941ZM7.75401 15.508C6.68137 15.508 5.67335 15.3043 4.72995 14.897C3.78654 14.4902 2.96591 13.9378 2.26805 13.24C1.57019 12.5421 1.01784 11.7215 0.611016 10.7781C0.203672 9.83467 0 8.82665 0 7.75401C0 6.68137 0.203672 5.67335 0.611016 4.72995C1.01784 3.78654 1.57019 2.96591 2.26805 2.26805C2.96591 1.57019 3.78654 1.01758 4.72995 0.610241C5.67335 0.203413 6.68137 0 7.75401 0C8.82665 0 9.83467 0.203413 10.7781 0.610241C11.7215 1.01758 12.5421 1.57019 13.24 2.26805C13.9378 2.96591 14.4902 3.78654 14.897 4.72995C15.3043 5.67335 15.508 6.68137 15.508 7.75401C15.508 8.82665 15.3043 9.83467 14.897 10.7781C14.4902 11.7215 13.9378 12.5421 13.24 13.24C12.5421 13.9378 11.7215 14.4902 10.7781 14.897C9.83467 15.3043 8.82665 15.508 7.75401 15.508ZM7.75401 13.9572C8.43895 13.9572 9.08512 13.8572 9.69251 13.6571C10.2999 13.4566 10.8556 13.1689 11.3596 12.7941C10.8556 12.4193 10.2999 12.1317 9.69251 11.9311C9.08512 11.731 8.43895 11.631 7.75401 11.631C7.06907 11.631 6.42291 11.731 5.81551 11.9311C5.20811 12.1317 4.65241 12.4193 4.1484 12.7941C4.65241 13.1689 5.20811 13.4566 5.81551 13.6571C6.42291 13.8572 7.06907 13.9572 7.75401 13.9572ZM7.75401 6.97861C8.09002 6.97861 8.36787 6.86876 8.58757 6.64906C8.80726 6.42937 8.91711 6.15152 8.91711 5.81551C8.91711 5.4795 8.80726 5.20165 8.58757 4.98195C8.36787 4.76225 8.09002 4.65241 7.75401 4.65241C7.418 4.65241 7.14015 4.76225 6.92045 4.98195C6.70076 5.20165 6.59091 5.4795 6.59091 5.81551C6.59091 6.15152 6.70076 6.42937 6.92045 6.64906C7.14015 6.86876 7.418 6.97861 7.75401 6.97861Z" fill="black"/>
</svg>
