<svg width="16" height="16" viewBox="0 0 16 16" fill="none" xmlns="http://www.w3.org/2000/svg">
<path d="M11.2821 8.52941C11.8636 8.52941 12.3754 8.2115 12.639 7.73075L15.415 2.6984C15.7019 2.18663 15.3297 1.5508 14.7404 1.5508H3.26444L2.53556 0H0V1.5508H1.5508L4.34225 7.4361L3.29545 9.32807C2.72941 10.3671 3.4738 11.631 4.65241 11.631H13.9572V10.0802H4.65241L5.50535 8.52941H11.2821ZM4.00107 3.1016H13.4222L11.2821 6.97861H5.83877L4.00107 3.1016ZM4.65241 12.4064C3.79947 12.4064 3.10936 13.1043 3.10936 13.9572C3.10936 14.8102 3.79947 15.508 4.65241 15.508C5.50535 15.508 6.20321 14.8102 6.20321 13.9572C6.20321 13.1043 5.50535 12.4064 4.65241 12.4064ZM12.4064 12.4064C11.5535 12.4064 10.8634 13.1043 10.8634 13.9572C10.8634 14.8102 11.5535 15.508 12.4064 15.508C13.2594 15.508 13.9572 14.8102 13.9572 13.9572C13.9572 13.1043 13.2594 12.4064 12.4064 12.4064Z" fill="black"/>
</svg>
