<svg width="16" height="15" viewBox="0 0 16 15" fill="none" xmlns="http://www.w3.org/2000/svg">
<path d="M7.75401 14.2286L6.62968 13.2206C5.32442 12.0446 4.24532 11.0301 3.39238 10.1771C2.53944 9.3242 1.86096 8.55836 1.35695 7.87963C0.852941 7.20141 0.500909 6.57799 0.300856 6.00936C0.100285 5.44073 0 4.85918 0 4.26471C0 3.04991 0.407086 2.03543 1.22126 1.22126C2.03543 0.407085 3.04991 0 4.26471 0C4.93672 0 5.57643 0.142157 6.18382 0.426471C6.79122 0.710784 7.31462 1.11141 7.75401 1.62834C8.1934 1.11141 8.7168 0.710784 9.3242 0.426471C9.93159 0.142157 10.5713 0 11.2433 0C12.4581 0 13.4726 0.407085 14.2868 1.22126C15.1009 2.03543 15.508 3.04991 15.508 4.26471C15.508 4.85918 15.408 5.44073 15.2079 6.00936C15.0074 6.57799 14.6551 7.20141 14.1511 7.87963C13.6471 8.55836 12.9686 9.3242 12.1156 10.1771C11.2627 11.0301 10.1836 12.0446 8.87834 13.2206L7.75401 14.2286ZM7.75401 12.135C8.99465 11.0236 10.0156 10.0704 10.8168 9.27535C11.6181 8.48082 12.2513 7.78968 12.7166 7.20193C13.1818 6.61365 13.5049 6.09 13.6858 5.63096C13.8668 5.17244 13.9572 4.71702 13.9572 4.26471C13.9572 3.4893 13.6988 2.84314 13.1818 2.3262C12.6649 1.80927 12.0187 1.5508 11.2433 1.5508C10.6359 1.5508 10.0738 1.72191 9.55682 2.06412C9.03988 2.40684 8.68449 2.84314 8.49064 3.37299H7.01738C6.82353 2.84314 6.46814 2.40684 5.9512 2.06412C5.43427 1.72191 4.8721 1.5508 4.26471 1.5508C3.4893 1.5508 2.84314 1.80927 2.3262 2.3262C1.80927 2.84314 1.5508 3.4893 1.5508 4.26471C1.5508 4.71702 1.64127 5.17244 1.82219 5.63096C2.00312 6.09 2.3262 6.61365 2.79144 7.20193C3.25668 7.78968 3.88993 8.48082 4.69118 9.27535C5.49242 10.0704 6.51337 11.0236 7.75401 12.135Z" fill="black"/>
</svg>
