<svg width="222" height="33" viewBox="0 0 222 33" fill="none" xmlns="http://www.w3.org/2000/svg">
<path d="M39.276 2.726L30.792 32H26.508L19.704 8.438L12.648 32L8.406 32.042L0.216 2.726H4.29L10.674 27.548L17.73 2.726H22.014L28.734 27.464L35.16 2.726H39.276ZM40.0306 20.408C40.0306 18.056 40.5066 15.998 41.4586 14.234C42.4106 12.442 43.7126 11.056 45.3646 10.076C47.0446 9.096 48.9066 8.606 50.9506 8.606C52.9666 8.606 54.7166 9.04 56.2006 9.908C57.6846 10.776 58.7906 11.868 59.5186 13.184V8.984H63.3826V32H59.5186V27.716C58.7626 29.06 57.6286 30.18 56.1166 31.076C54.6326 31.944 52.8966 32.378 50.9086 32.378C48.8646 32.378 47.0166 31.874 45.3646 30.866C43.7126 29.858 42.4106 28.444 41.4586 26.624C40.5066 24.804 40.0306 22.732 40.0306 20.408ZM59.5186 20.45C59.5186 18.714 59.1686 17.202 58.4686 15.914C57.7686 14.626 56.8166 13.646 55.6126 12.974C54.4366 12.274 53.1346 11.924 51.7066 11.924C50.2786 11.924 48.9766 12.26 47.8006 12.932C46.6246 13.604 45.6866 14.584 44.9866 15.872C44.2866 17.16 43.9366 18.672 43.9366 20.408C43.9366 22.172 44.2866 23.712 44.9866 25.028C45.6866 26.316 46.6246 27.31 47.8006 28.01C48.9766 28.682 50.2786 29.018 51.7066 29.018C53.1346 29.018 54.4366 28.682 55.6126 28.01C56.8166 27.31 57.7686 26.316 58.4686 25.028C59.1686 23.712 59.5186 22.186 59.5186 20.45ZM72.5034 12.134V25.7C72.5034 26.82 72.7414 27.618 73.2174 28.094C73.6934 28.542 74.5194 28.766 75.6954 28.766H78.5094V32H75.0654C72.9374 32 71.3414 31.51 70.2774 30.53C69.2134 29.55 68.6814 27.94 68.6814 25.7V12.134H65.6994V8.984H68.6814V3.188H72.5034V8.984H78.5094V12.134H72.5034ZM79.7123 20.45C79.7123 18.07 80.1883 15.998 81.1403 14.234C82.0923 12.442 83.4083 11.056 85.0883 10.076C86.7963 9.096 88.7423 8.606 90.9263 8.606C93.7543 8.606 96.0783 9.292 97.8983 10.664C99.7463 12.036 100.964 13.94 101.552 16.376H97.4363C97.0443 14.976 96.2743 13.87 95.1263 13.058C94.0063 12.246 92.6063 11.84 90.9263 11.84C88.7423 11.84 86.9783 12.596 85.6343 14.108C84.2903 15.592 83.6183 17.706 83.6183 20.45C83.6183 23.222 84.2903 25.364 85.6343 26.876C86.9783 28.388 88.7423 29.144 90.9263 29.144C92.6063 29.144 94.0063 28.752 95.1263 27.968C96.2463 27.184 97.0163 26.064 97.4363 24.608H101.552C100.936 26.96 99.7043 28.85 97.8563 30.278C96.0083 31.678 93.6983 32.378 90.9263 32.378C88.7423 32.378 86.7963 31.888 85.0883 30.908C83.4083 29.928 82.0923 28.542 81.1403 26.75C80.1883 24.958 79.7123 22.858 79.7123 20.45ZM116.076 8.564C117.812 8.564 119.38 8.942 120.78 9.698C122.18 10.426 123.272 11.532 124.056 13.016C124.868 14.5 125.274 16.306 125.274 18.434V32H121.494V18.98C121.494 16.684 120.92 14.934 119.772 13.73C118.624 12.498 117.056 11.882 115.068 11.882C113.052 11.882 111.442 12.512 110.238 13.772C109.062 15.032 108.474 16.866 108.474 19.274V32H104.652V0.92H108.474V12.26C109.23 11.084 110.266 10.174 111.582 9.53C112.926 8.886 114.424 8.564 116.076 8.564Z" fill="#910000"/>
<path d="M130.735 32.252C130.007 32.252 129.391 32 128.887 31.496C128.383 30.992 128.131 30.376 128.131 29.648C128.131 28.92 128.383 28.304 128.887 27.8C129.391 27.296 130.007 27.044 130.735 27.044C131.435 27.044 132.023 27.296 132.499 27.8C133.003 28.304 133.255 28.92 133.255 29.648C133.255 30.376 133.003 30.992 132.499 31.496C132.023 32 131.435 32.252 130.735 32.252ZM134.908 20.45C134.908 18.07 135.384 15.998 136.336 14.234C137.288 12.442 138.604 11.056 140.284 10.076C141.992 9.096 143.938 8.606 146.122 8.606C148.95 8.606 151.274 9.292 153.094 10.664C154.942 12.036 156.16 13.94 156.748 16.376H152.632C152.24 14.976 151.47 13.87 150.322 13.058C149.202 12.246 147.802 11.84 146.122 11.84C143.938 11.84 142.174 12.596 140.83 14.108C139.486 15.592 138.814 17.706 138.814 20.45C138.814 23.222 139.486 25.364 140.83 26.876C142.174 28.388 143.938 29.144 146.122 29.144C147.802 29.144 149.202 28.752 150.322 27.968C151.442 27.184 152.212 26.064 152.632 24.608H156.748C156.132 26.96 154.9 28.85 153.052 30.278C151.204 31.678 148.894 32.378 146.122 32.378C143.938 32.378 141.992 31.888 140.284 30.908C138.604 29.928 137.288 28.542 136.336 26.75C135.384 24.958 134.908 22.858 134.908 20.45ZM169.885 32.378C167.729 32.378 165.769 31.888 164.005 30.908C162.269 29.928 160.897 28.542 159.889 26.75C158.909 24.93 158.419 22.83 158.419 20.45C158.419 18.098 158.923 16.026 159.931 14.234C160.967 12.414 162.367 11.028 164.131 10.076C165.895 9.096 167.869 8.606 170.053 8.606C172.237 8.606 174.211 9.096 175.975 10.076C177.739 11.028 179.125 12.4 180.133 14.192C181.169 15.984 181.687 18.07 181.687 20.45C181.687 22.83 181.155 24.93 180.091 26.75C179.055 28.542 177.641 29.928 175.849 30.908C174.057 31.888 172.069 32.378 169.885 32.378ZM169.885 29.018C171.257 29.018 172.545 28.696 173.749 28.052C174.953 27.408 175.919 26.442 176.647 25.154C177.403 23.866 177.781 22.298 177.781 20.45C177.781 18.602 177.417 17.034 176.689 15.746C175.961 14.458 175.009 13.506 173.833 12.89C172.657 12.246 171.383 11.924 170.011 11.924C168.611 11.924 167.323 12.246 166.147 12.89C164.999 13.506 164.075 14.458 163.375 15.746C162.675 17.034 162.325 18.602 162.325 20.45C162.325 22.326 162.661 23.908 163.333 25.196C164.033 26.484 164.957 27.45 166.105 28.094C167.253 28.71 168.513 29.018 169.885 29.018ZM212.391 8.564C214.183 8.564 215.779 8.942 217.179 9.698C218.579 10.426 219.685 11.532 220.497 13.016C221.309 14.5 221.715 16.306 221.715 18.434V32H217.935V18.98C217.935 16.684 217.361 14.934 216.213 13.73C215.093 12.498 213.567 11.882 211.635 11.882C209.647 11.882 208.065 12.526 206.889 13.814C205.713 15.074 205.125 16.908 205.125 19.316V32H201.345V18.98C201.345 16.684 200.771 14.934 199.623 13.73C198.503 12.498 196.977 11.882 195.045 11.882C193.057 11.882 191.475 12.526 190.299 13.814C189.123 15.074 188.535 16.908 188.535 19.316V32H184.713V8.984H188.535V12.302C189.291 11.098 190.299 10.174 191.559 9.53C192.847 8.886 194.261 8.564 195.801 8.564C197.733 8.564 199.441 8.998 200.925 9.866C202.409 10.734 203.515 12.008 204.243 13.688C204.887 12.064 205.951 10.804 207.435 9.908C208.919 9.012 210.571 8.564 212.391 8.564Z" fill="black"/>
</svg>
